<?xml version="1.0" encoding="utf-8"?>
<!-- Generator: Adobe Illustrator 27.5.0, SVG Export Plug-In . SVG Version: 6.00 Build 0)  -->
<svg version="1.1" xmlns="http://www.w3.org/2000/svg" xmlns:xlink="http://www.w3.org/1999/xlink" x="0px" y="0px"
	 viewBox="0 0 750 500" style="enable-background:new 0 0 750 500;" xml:space="preserve">
<g id="BACKGROUND">
	<g>
		<linearGradient id="SVGID_1_" gradientUnits="userSpaceOnUse" x1="362.252" y1="-146.7795" x2="382.4626" y2="482.273">
			<stop  offset="0" style="stop-color:#D771A9"/>
			<stop  offset="0.2562" style="stop-color:#CB1487"/>
			<stop  offset="1" style="stop-color:#290D22"/>
		</linearGradient>
		<rect style="fill:url(#SVGID_1_);" width="750" height="500"/>
	</g>
</g>
<g id="OBJECTS">
	<g>
		
			<linearGradient id="SVGID_00000134951262277446769740000005399558368537961629_" gradientUnits="userSpaceOnUse" x1="335.4962" y1="-141.3123" x2="402.443" y2="521.8417">
			<stop  offset="0" style="stop-color:#D771A9"/>
			<stop  offset="0.432" style="stop-color:#CB1487"/>
			<stop  offset="1" style="stop-color:#290D22"/>
		</linearGradient>
		<rect style="fill:url(#SVGID_00000134951262277446769740000005399558368537961629_);" width="750" height="500"/>
		<g>
			<defs>
				<rect id="SVGID_00000076590024263649069020000011257640060357004424_" width="750" height="500"/>
			</defs>
			<clipPath id="SVGID_00000084529989376641916240000000975175879839131784_">
				<use xlink:href="#SVGID_00000076590024263649069020000011257640060357004424_"  style="overflow:visible;"/>
			</clipPath>
			<g style="clip-path:url(#SVGID_00000084529989376641916240000000975175879839131784_);">
				
					<linearGradient id="SVGID_00000111872851244564855470000015120177262706126003_" gradientUnits="userSpaceOnUse" x1="48.9908" y1="-285.9225" x2="310.4641" y2="443.5498">
					<stop  offset="0" style="stop-color:#D771A9"/>
					<stop  offset="0.432" style="stop-color:#CB1487"/>
					<stop  offset="1" style="stop-color:#290D22"/>
				</linearGradient>
				<polygon style="fill:url(#SVGID_00000111872851244564855470000015120177262706126003_);" points="0,472.217 472.217,0 
					271.447,0 0,271.446 				"/>
				
					<linearGradient id="SVGID_00000116215917936088396240000014862161703648779696_" gradientUnits="userSpaceOnUse" x1="365.28" y1="-187.4446" x2="442.3319" y2="636.1328">
					<stop  offset="0" style="stop-color:#D771A9"/>
					<stop  offset="0.2562" style="stop-color:#CB1487"/>
					<stop  offset="1" style="stop-color:#290D22"/>
				</linearGradient>
				<polygon style="fill:url(#SVGID_00000116215917936088396240000014862161703648779696_);" points="512.459,500 750,262.459 
					750,0 562.412,0 62.412,500 				"/>
				
					<linearGradient id="SVGID_00000103237961213784752130000007234759112908979889_" gradientUnits="userSpaceOnUse" x1="50.508" y1="456.0127" x2="-106.2689" y2="589.2729">
					<stop  offset="0" style="stop-color:#D771A9"/>
					<stop  offset="0.5" style="stop-color:#CB1487"/>
					<stop  offset="1" style="stop-color:#A02588"/>
				</linearGradient>
				<path style="fill:url(#SVGID_00000103237961213784752130000007234759112908979889_);" d="M1.151,448.6
					c-27.264,0-49.366,22.102-49.366,49.366c0,27.264,22.102,49.366,49.366,49.366s49.366-22.102,49.366-49.366
					C50.517,470.702,28.415,448.6,1.151,448.6z M1.151,521.295c-12.884,0-23.328-10.445-23.328-23.329
					c0-12.884,10.444-23.328,23.328-23.328s23.329,10.444,23.329,23.328C24.479,510.851,14.035,521.295,1.151,521.295z"/>
				
					<linearGradient id="SVGID_00000018237777447108146090000002269530768128304783_" gradientUnits="userSpaceOnUse" x1="79.3226" y1="326.4513" x2="75.4725" y2="509.6145">
					<stop  offset="0" style="stop-color:#FDF161"/>
					<stop  offset="0.0521" style="stop-color:#FDE75A"/>
					<stop  offset="0.1797" style="stop-color:#FED44D"/>
					<stop  offset="0.3111" style="stop-color:#FFC946"/>
					<stop  offset="0.4511" style="stop-color:#FFC543"/>
					<stop  offset="0.6685" style="stop-color:#F68E4D"/>
					<stop  offset="1" style="stop-color:#ED3B3F"/>
				</linearGradient>
				<circle style="fill:url(#SVGID_00000018237777447108146090000002269530768128304783_);" cx="77.112" cy="431.621" r="27.227"/>
				
					<linearGradient id="SVGID_00000089572006495306912510000003842749458549243793_" gradientUnits="userSpaceOnUse" x1="697.0054" y1="66.2616" x2="694.7108" y2="291.1435" gradientTransform="matrix(0.7071 0.7071 -0.7071 0.7071 -259.1678 -102.2528)">
					<stop  offset="0" style="stop-color:#F77E7D"/>
					<stop  offset="0.5" style="stop-color:#F23A58"/>
					<stop  offset="1" style="stop-color:#E11948"/>
				</linearGradient>
				<path style="fill:url(#SVGID_00000089572006495306912510000003842749458549243793_);" d="M70.791,552.204L70.791,552.204
					c-10.343-10.343-10.343-27.113,0-37.456l66.952-66.952c10.343-10.343,27.113-10.343,37.456,0l0,0
					c10.343,10.343,10.343,27.112,0,37.456l-66.952,66.952C97.904,562.547,81.134,562.547,70.791,552.204z"/>
				
					<linearGradient id="SVGID_00000041988059997985018810000014713556823508146071_" gradientUnits="userSpaceOnUse" x1="-1062.1617" y1="-1279.2726" x2="-1063.5515" y2="-1143.0693" gradientTransform="matrix(-0.7071 -0.7071 0.7071 -0.7071 499.8048 -1617.7457)">
					<stop  offset="0" style="stop-color:#FDF161"/>
					<stop  offset="0.0521" style="stop-color:#FDE75A"/>
					<stop  offset="0.1797" style="stop-color:#FED44D"/>
					<stop  offset="0.3111" style="stop-color:#FFC946"/>
					<stop  offset="0.4511" style="stop-color:#FFC543"/>
					<stop  offset="0.6685" style="stop-color:#F68E4D"/>
					<stop  offset="1" style="stop-color:#ED3B3F"/>
				</linearGradient>
				<path style="fill:url(#SVGID_00000041988059997985018810000014713556823508146071_);" d="M416.567-31.618L416.567-31.618
					c6.264,6.264,6.264,16.421,0,22.686l-40.551,40.55c-6.264,6.264-16.421,6.264-22.686,0l0,0c-6.264-6.264-6.264-16.421,0-22.686
					l40.551-40.55C400.146-37.882,410.303-37.882,416.567-31.618z"/>
				
					<linearGradient id="SVGID_00000004531797223984075370000002402593880616967560_" gradientUnits="userSpaceOnUse" x1="-95.542" y1="341.9127" x2="72.7676" y2="379.6374">
					<stop  offset="0" style="stop-color:#D771A9"/>
					<stop  offset="0.5" style="stop-color:#CB1487"/>
					<stop  offset="1" style="stop-color:#A02588"/>
				</linearGradient>
				<path style="fill:url(#SVGID_00000004531797223984075370000002402593880616967560_);" d="M5.304,360.657
					c13.968,0,25.291,11.323,25.291,25.291l28.228,0c0-29.558-23.961-53.519-53.519-53.519c-29.558,0-53.519,23.961-53.519,53.519
					h28.228C-19.987,371.98-8.664,360.657,5.304,360.657z"/>
				
					<linearGradient id="SVGID_00000088851468988797580390000017586651207607586741_" gradientUnits="userSpaceOnUse" x1="80.6866" y1="149.4926" x2="227.5465" y2="72.6472">
					<stop  offset="0" style="stop-color:#F77E7D"/>
					<stop  offset="0.5" style="stop-color:#F23A58"/>
					<stop  offset="1" style="stop-color:#E11948"/>
				</linearGradient>
				<path style="fill:url(#SVGID_00000088851468988797580390000017586651207607586741_);" d="M164.804,100.26
					c8.514-8.514,22.318-8.514,30.832,0l17.206-17.206c-18.016-18.017-47.227-18.017-65.244,0
					c-18.017,18.017-18.017,47.227,0,65.244l17.206-17.206C156.29,122.578,156.29,108.774,164.804,100.26z"/>
				
					<linearGradient id="SVGID_00000176728783979499885480000017107611557780852380_" gradientUnits="userSpaceOnUse" x1="320.529" y1="364.3654" x2="329.0673" y2="571.8478">
					<stop  offset="0" style="stop-color:#FDF161"/>
					<stop  offset="0.0521" style="stop-color:#FDE75A"/>
					<stop  offset="0.1797" style="stop-color:#FED44D"/>
					<stop  offset="0.3111" style="stop-color:#FFC946"/>
					<stop  offset="0.4511" style="stop-color:#FFC543"/>
					<stop  offset="0.6685" style="stop-color:#F68E4D"/>
					<stop  offset="1" style="stop-color:#ED3B3F"/>
				</linearGradient>
				<path style="fill:url(#SVGID_00000176728783979499885480000017107611557780852380_);" d="M336.776,514.575
					c-9.877,9.877-25.89,9.877-35.767,0l-19.96,19.96c20.9,20.901,54.787,20.901,75.688,0c20.901-20.901,20.901-54.787,0-75.688
					l-19.96,19.96C346.653,488.685,346.653,504.699,336.776,514.575z"/>
				<g>
					
						<linearGradient id="SVGID_00000114058859404577758330000011561454611592514965_" gradientUnits="userSpaceOnUse" x1="-18.4927" y1="424.4802" x2="18.4927" y2="424.4802">
						<stop  offset="0" style="stop-color:#FDF161"/>
						<stop  offset="0.0521" style="stop-color:#FDE75A"/>
						<stop  offset="0.1797" style="stop-color:#FED44D"/>
						<stop  offset="0.3111" style="stop-color:#FFC946"/>
						<stop  offset="0.4511" style="stop-color:#FFC543"/>
						<stop  offset="0.6685" style="stop-color:#F68E4D"/>
						<stop  offset="1" style="stop-color:#ED3B3F"/>
					</linearGradient>
					
						<rect x="-18.493" y="420.782" style="fill:url(#SVGID_00000114058859404577758330000011561454611592514965_);" width="36.985" height="7.397"/>
					
						<linearGradient id="SVGID_00000071535788008266479880000003968640587046117018_" gradientUnits="userSpaceOnUse" x1="-18.4927" y1="410.0681" x2="18.4927" y2="410.0681">
						<stop  offset="0" style="stop-color:#FDF161"/>
						<stop  offset="0.0521" style="stop-color:#FDE75A"/>
						<stop  offset="0.1797" style="stop-color:#FED44D"/>
						<stop  offset="0.3111" style="stop-color:#FFC946"/>
						<stop  offset="0.4511" style="stop-color:#FFC543"/>
						<stop  offset="0.6685" style="stop-color:#F68E4D"/>
						<stop  offset="1" style="stop-color:#ED3B3F"/>
					</linearGradient>
					
						<rect x="-18.493" y="406.37" style="fill:url(#SVGID_00000071535788008266479880000003968640587046117018_);" width="36.985" height="7.397"/>
				</g>
				<g>
					
						<linearGradient id="SVGID_00000062150547197876501420000004269117620936189362_" gradientUnits="userSpaceOnUse" x1="720.3947" y1="-172.3283" x2="719.8176" y2="-28.6153" gradientTransform="matrix(0.7071 0.7071 -0.7071 0.7071 -466.6765 -79.7249)">
						<stop  offset="0" style="stop-color:#F77E7D"/>
						<stop  offset="0.5" style="stop-color:#F23A58"/>
						<stop  offset="1" style="stop-color:#E11948"/>
					</linearGradient>
					<path style="fill:url(#SVGID_00000062150547197876501420000004269117620936189362_);" d="M144.787,327.472
						c2.479,2.479,6.499,2.479,8.978,0c2.479-2.479,2.479-6.499,0-8.978c-2.479-2.479-6.499-2.479-8.978,0
						C142.307,320.973,142.307,324.992,144.787,327.472z"/>
					
						<linearGradient id="SVGID_00000166673771314628657490000012787179154961125507_" gradientUnits="userSpaceOnUse" x1="720.499" y1="-172.3279" x2="719.9219" y2="-28.615" gradientTransform="matrix(0.7071 0.7071 -0.7071 0.7071 -466.6765 -79.7249)">
						<stop  offset="0" style="stop-color:#F77E7D"/>
						<stop  offset="0.5" style="stop-color:#F23A58"/>
						<stop  offset="1" style="stop-color:#E11948"/>
					</linearGradient>
					<path style="fill:url(#SVGID_00000166673771314628657490000012787179154961125507_);" d="M135.4,336.858
						c-2.479-2.479-6.499-2.479-8.978,0c-2.479,2.479-2.479,6.499,0,8.978c2.479,2.479,6.499,2.479,8.978,0
						C137.879,343.358,137.879,339.338,135.4,336.858z"/>
					
						<linearGradient id="SVGID_00000107560607409454883380000001649068478059739807_" gradientUnits="userSpaceOnUse" x1="720.6035" y1="-172.3278" x2="720.0263" y2="-28.6145" gradientTransform="matrix(0.7071 0.7071 -0.7071 0.7071 -466.6765 -79.7249)">
						<stop  offset="0" style="stop-color:#F77E7D"/>
						<stop  offset="0.5" style="stop-color:#F23A58"/>
						<stop  offset="1" style="stop-color:#E11948"/>
					</linearGradient>
					<path style="fill:url(#SVGID_00000107560607409454883380000001649068478059739807_);" d="M117.035,355.223
						c-2.479-2.479-6.499-2.479-8.978,0c-2.479,2.479-2.479,6.499,0,8.978s6.499,2.479,8.979,0
						C119.515,361.723,119.515,357.703,117.035,355.223z"/>
				</g>
				<g>
					
						<linearGradient id="SVGID_00000034071275376474930140000002468004338500343461_" gradientUnits="userSpaceOnUse" x1="360.4252" y1="347.7864" x2="292.9719" y2="533.0695">
						<stop  offset="0" style="stop-color:#00C4EE"/>
						<stop  offset="0.5" style="stop-color:#00AEE8"/>
						<stop  offset="1" style="stop-color:#0095D4"/>
					</linearGradient>
					<path style="fill:url(#SVGID_00000034071275376474930140000002468004338500343461_);" d="M327.66,433.866
						c1.24,1.24,3.25,1.24,4.489,0c1.24-1.24,1.24-3.249,0-4.489c-1.24-1.24-3.25-1.24-4.489,0
						C326.421,430.616,326.421,432.626,327.66,433.866z"/>
					
						<linearGradient id="SVGID_00000107550823050368379710000010988442306112654519_" gradientUnits="userSpaceOnUse" x1="355.2687" y1="345.9103" x2="287.816" y2="531.1918">
						<stop  offset="0" style="stop-color:#00C4EE"/>
						<stop  offset="0.5" style="stop-color:#00AEE8"/>
						<stop  offset="1" style="stop-color:#0095D4"/>
					</linearGradient>
					<path style="fill:url(#SVGID_00000107550823050368379710000010988442306112654519_);" d="M322.967,438.559
						c-1.24-1.24-3.249-1.24-4.489,0c-1.24,1.24-1.24,3.25,0,4.489c1.24,1.24,3.25,1.24,4.489,0
						C324.206,441.809,324.206,439.799,322.967,438.559z"/>
					
						<linearGradient id="SVGID_00000102540840251593686060000003880394772226883736_" gradientUnits="userSpaceOnUse" x1="350.1129" y1="344.0323" x2="282.6596" y2="529.3153">
						<stop  offset="0" style="stop-color:#00C4EE"/>
						<stop  offset="0.5" style="stop-color:#00AEE8"/>
						<stop  offset="1" style="stop-color:#0095D4"/>
					</linearGradient>
					<path style="fill:url(#SVGID_00000102540840251593686060000003880394772226883736_);" d="M313.784,447.741
						c-1.24-1.24-3.249-1.24-4.489,0c-1.24,1.24-1.24,3.25,0,4.489c1.24,1.24,3.25,1.24,4.489,0
						C315.024,450.991,315.024,448.981,313.784,447.741z"/>
				</g>
				
					<linearGradient id="SVGID_00000147913889258983913050000006013847192532081830_" gradientUnits="userSpaceOnUse" x1="37.9734" y1="171.4635" x2="0.2489" y2="322.3621">
					<stop  offset="0" style="stop-color:#F77E7D"/>
					<stop  offset="0.5" style="stop-color:#F23A58"/>
					<stop  offset="1" style="stop-color:#E11948"/>
				</linearGradient>
				<path style="fill:url(#SVGID_00000147913889258983913050000006013847192532081830_);" d="M0,178.172v126.789
					c30.97-4.514,54.757-31.172,54.757-63.395C54.757,209.344,30.97,182.686,0,178.172z"/>
				
					<linearGradient id="SVGID_00000168807029983953003830000003672474396568156295_" gradientUnits="userSpaceOnUse" x1="244.3352" y1="394.0644" x2="233.236" y2="678.0744">
					<stop  offset="0" style="stop-color:#D771A9"/>
					<stop  offset="0.5" style="stop-color:#CB1487"/>
					<stop  offset="1" style="stop-color:#A02588"/>
				</linearGradient>
				<path style="fill:url(#SVGID_00000168807029983953003830000003672474396568156295_);" d="M267.598,436.605
					c-30.97,4.514-54.757,31.172-54.757,63.395h54.757V436.605z"/>
				<path style="fill:#FFFFFF;" d="M239.515,366.58c0.669,0.669,1.755,0.669,2.424,0c0.669-0.669,0.669-1.755,0-2.424
					c-0.669-0.669-1.755-0.669-2.424,0C238.846,364.826,238.846,365.911,239.515,366.58z M200.781,405.315
					c-0.669-0.669-1.755-0.669-2.424,0c-0.669,0.669-0.669,1.755,0,2.424c0.669,0.669,1.755,0.669,2.424,0
					C201.45,407.07,201.45,405.985,200.781,405.315z M211.07,395.026c-0.669-0.669-1.755-0.669-2.424,0
					c-0.669,0.669-0.669,1.755,0,2.424c0.669,0.669,1.755,0.669,2.424,0C211.74,396.78,211.74,395.695,211.07,395.026z
					 M221.36,384.736c-0.669-0.669-1.755-0.669-2.424,0c-0.669,0.669-0.669,1.755,0,2.424c0.669,0.669,1.755,0.669,2.424,0
					C222.029,386.49,222.029,385.405,221.36,384.736z M231.649,374.446c-0.669-0.669-1.755-0.669-2.424,0
					c-0.669,0.669-0.669,1.755,0,2.424c0.669,0.669,1.755,0.669,2.424,0C232.319,376.201,232.319,375.116,231.649,374.446z"/>
				<path style="fill:#FFFFFF;" d="M107.796,203.875c0.335,0.335,0.877,0.335,1.212,0c0.335-0.335,0.335-0.877,0-1.212
					c-0.335-0.335-0.877-0.335-1.212,0C107.462,202.997,107.462,203.54,107.796,203.875z M88.429,223.242
					c-0.335-0.335-0.877-0.335-1.212,0c-0.335,0.335-0.335,0.877,0,1.212c0.335,0.335,0.877,0.335,1.212,0
					S88.764,223.577,88.429,223.242z M93.574,218.097c-0.335-0.335-0.877-0.335-1.212,0c-0.335,0.335-0.335,0.877,0,1.212
					c0.335,0.335,0.877,0.335,1.212,0C93.909,218.974,93.909,218.432,93.574,218.097z M98.719,212.952
					c-0.335-0.335-0.877-0.335-1.212,0c-0.335,0.335-0.335,0.877,0,1.212c0.335,0.335,0.877,0.335,1.212,0
					C99.053,213.829,99.053,213.287,98.719,212.952z M103.863,207.807c-0.335-0.335-0.877-0.335-1.212,0
					c-0.335,0.335-0.335,0.877,0,1.212c0.335,0.335,0.877,0.335,1.212,0C104.198,208.685,104.198,208.142,103.863,207.807z"/>
				<path style="fill:#FFFFFF;" d="M64.44,332.521c0.335,0.335,0.877,0.335,1.212,0c0.335-0.335,0.335-0.877,0-1.212
					c-0.335-0.335-0.877-0.335-1.212,0C64.106,331.644,64.106,332.186,64.44,332.521z M45.073,351.888
					c-0.335-0.335-0.877-0.335-1.212,0c-0.335,0.335-0.335,0.877,0,1.212c0.335,0.335,0.877,0.335,1.212,0
					C45.408,352.766,45.408,352.223,45.073,351.888z M50.218,346.743c-0.335-0.335-0.877-0.335-1.212,0
					c-0.335,0.335-0.335,0.877,0,1.212c0.335,0.335,0.877,0.335,1.212,0C50.553,347.621,50.553,347.078,50.218,346.743z
					 M55.363,341.599c-0.335-0.335-0.877-0.335-1.212,0c-0.335,0.335-0.335,0.877,0,1.212c0.335,0.335,0.877,0.335,1.212,0
					C55.697,342.476,55.697,341.933,55.363,341.599z M60.508,336.454c-0.335-0.335-0.877-0.335-1.212,0
					c-0.335,0.335-0.335,0.877,0,1.212c0.335,0.335,0.877,0.335,1.212,0C60.842,337.331,60.842,336.789,60.508,336.454z"/>
				<path style="fill:#FFFFFF;" d="M433.128,443.477c0.335,0.335,0.877,0.335,1.212,0c0.335-0.335,0.335-0.877,0-1.212
					c-0.335-0.335-0.877-0.335-1.212,0C432.793,442.599,432.793,443.142,433.128,443.477z M413.761,462.844
					c-0.335-0.335-0.877-0.335-1.212,0c-0.335,0.335-0.335,0.877,0,1.212c0.335,0.335,0.877,0.335,1.212,0
					C414.096,463.721,414.096,463.179,413.761,462.844z M418.906,457.699c-0.335-0.335-0.877-0.335-1.212,0
					c-0.335,0.335-0.335,0.877,0,1.212c0.335,0.335,0.877,0.335,1.212,0C419.24,458.577,419.24,458.034,418.906,457.699z
					 M424.051,452.554c-0.335-0.335-0.877-0.335-1.212,0c-0.335,0.335-0.335,0.877,0,1.212c0.335,0.335,0.877,0.335,1.212,0
					C424.385,453.432,424.385,452.889,424.051,452.554z M429.195,447.41c-0.335-0.335-0.877-0.335-1.212,0
					c-0.335,0.335-0.335,0.877,0,1.212c0.335,0.335,0.877,0.335,1.212,0C429.53,448.287,429.53,447.744,429.195,447.41z"/>
				<path style="fill:#FFFFFF;" d="M327.563-15.963c0.669,0.669,1.755,0.669,2.424,0c0.669-0.669,0.669-1.755,0-2.424
					c-0.669-0.669-1.755-0.669-2.424,0C326.893-17.718,326.893-16.633,327.563-15.963z M288.828,22.772
					c-0.669-0.669-1.755-0.669-2.424,0c-0.669,0.669-0.669,1.755,0,2.424c0.669,0.669,1.754,0.669,2.424,0
					C289.497,24.526,289.497,23.441,288.828,22.772z M299.118,12.482c-0.669-0.669-1.754-0.669-2.424,0
					c-0.669,0.669-0.669,1.755,0,2.424c0.669,0.669,1.755,0.669,2.424,0C299.787,14.237,299.787,13.151,299.118,12.482z
					 M309.407,2.192c-0.669-0.669-1.755-0.669-2.424,0c-0.669,0.669-0.669,1.755,0,2.424c0.669,0.669,1.754,0.669,2.424,0
					C310.077,3.947,310.077,2.862,309.407,2.192z M319.697-8.097c-0.669-0.669-1.755-0.669-2.424,0
					c-0.669,0.669-0.669,1.755,0,2.424c0.669,0.669,1.755,0.669,2.424,0C320.366-6.343,320.366-7.428,319.697-8.097z"/>
				<rect x="89.128" y="280.857" style="fill:none;stroke:#FFFFFF;stroke-miterlimit:10;" width="12.697" height="12.697"/>
				<rect x="236.092" y="35.063" style="fill:none;stroke:#FFFFFF;stroke-miterlimit:10;" width="12.697" height="12.697"/>
				
					<linearGradient id="SVGID_00000046327963079696738380000006769749576896948887_" gradientUnits="userSpaceOnUse" x1="186.1288" y1="209.9537" x2="215.1592" y2="285.0915">
					<stop  offset="0" style="stop-color:#F77E7D"/>
					<stop  offset="0.5" style="stop-color:#F23A58"/>
					<stop  offset="1" style="stop-color:#E11948"/>
				</linearGradient>
				<path style="fill:url(#SVGID_00000046327963079696738380000006769749576896948887_);" d="M220.165,239.529v32.617l-32.617,0
					L220.165,239.529z"/>
				<path style="fill:#FFFFFF;" d="M147.912,383.014L147.912,383.014c-0.453-0.453-0.453-1.188,0-1.642l36.915-36.915
					c0.453-0.453,1.189-0.453,1.642,0l0,0c0.453,0.453,0.453,1.189,0,1.642l-36.915,36.915
					C149.1,383.468,148.365,383.468,147.912,383.014z"/>
				<path style="fill:#FFFFFF;" d="M324.259,60.69L324.259,60.69c-0.453-0.453-0.453-1.188,0-1.642l36.915-36.915
					c0.453-0.453,1.188-0.453,1.642,0l0,0c0.453,0.454,0.453,1.189,0,1.642L325.901,60.69
					C325.448,61.143,324.712,61.143,324.259,60.69z"/>
				<path style="fill:#FFFFFF;" d="M27.719,213.218L27.719,213.218c-0.453-0.453-0.453-1.189,0-1.642l36.915-36.915
					c0.453-0.453,1.188-0.453,1.642,0l0,0c0.453,0.453,0.453,1.189,0,1.642l-36.915,36.915
					C28.907,213.672,28.172,213.672,27.719,213.218z"/>
				<path style="fill:#FFFFFF;" d="M65.442,193.6L65.442,193.6c-0.453-0.453-0.453-1.188,0-1.642l36.915-36.915
					c0.453-0.453,1.188-0.453,1.642,0l0,0c0.453,0.453,0.453,1.189,0,1.642L67.084,193.6
					C66.631,194.053,65.895,194.053,65.442,193.6z"/>
				<path style="fill:#FFFFFF;" d="M385.419,516.244L385.419,516.244c-0.453-0.453-0.453-1.188,0-1.642l86.412-86.413
					c0.453-0.453,1.189-0.453,1.642,0l0,0c0.453,0.453,0.453,1.189,0,1.642l-86.412,86.413
					C386.608,516.698,385.872,516.698,385.419,516.244z"/>
				<path style="fill:#FFFFFF;" d="M358.865,560.612L358.865,560.612c-0.453-0.453-0.453-1.188,0-1.642l86.412-86.413
					c0.453-0.453,1.189-0.453,1.642,0l0,0c0.453,0.453,0.453,1.189,0,1.642l-86.412,86.413
					C360.053,561.065,359.318,561.065,358.865,560.612z"/>
				
					<linearGradient id="SVGID_00000026143843569034510880000004672596522541153178_" gradientUnits="userSpaceOnUse" x1="-57.3874" y1="-209.6644" x2="167.1384" y2="276.3343">
					<stop  offset="0" style="stop-color:#D771A9"/>
					<stop  offset="0.432" style="stop-color:#CB1487"/>
					<stop  offset="1" style="stop-color:#290D22"/>
				</linearGradient>
				<polygon style="fill:url(#SVGID_00000026143843569034510880000004672596522541153178_);" points="87.063,0 0,87.063 0,146.745 
					146.745,0 				"/>
				
					<linearGradient id="SVGID_00000142892870082828389390000001576566030226703490_" gradientUnits="userSpaceOnUse" x1="397.5337" y1="64.5874" x2="-42.0439" y2="-104.0433">
					<stop  offset="0" style="stop-color:#FDF161"/>
					<stop  offset="0.0521" style="stop-color:#FDE75A"/>
					<stop  offset="0.1797" style="stop-color:#FED44D"/>
					<stop  offset="0.3111" style="stop-color:#FFC946"/>
					<stop  offset="0.4511" style="stop-color:#FFC543"/>
					<stop  offset="0.6685" style="stop-color:#F68E4D"/>
					<stop  offset="1" style="stop-color:#ED3B3F"/>
				</linearGradient>
				<path style="fill:url(#SVGID_00000142892870082828389390000001576566030226703490_);" d="M57.172,136.453L57.172,136.453
					c-16.454,0-29.793-13.339-29.793-29.793l0.001-345.284c0-16.454,13.339-29.793,29.793-29.793h0
					c16.454,0,29.793,13.339,29.793,29.793L86.966,106.66C86.966,123.114,73.627,136.453,57.172,136.453z"/>
				
					<linearGradient id="SVGID_00000070819493624051855730000000858869139072104890_" gradientUnits="userSpaceOnUse" x1="168.3003" y1="43.1307" x2="163.71" y2="-135.2334">
					<stop  offset="0" style="stop-color:#D771A9"/>
					<stop  offset="0.5" style="stop-color:#CB1487"/>
					<stop  offset="1" style="stop-color:#A02588"/>
				</linearGradient>
				<circle style="fill:url(#SVGID_00000070819493624051855730000000858869139072104890_);" cx="167.19" cy="0" r="51.663"/>
				
					<linearGradient id="SVGID_00000002355456240204971310000005608106600086316722_" gradientUnits="userSpaceOnUse" x1="819.0436" y1="87.818" x2="637.1496" y2="558.6592">
					<stop  offset="0" style="stop-color:#D771A9"/>
					<stop  offset="0.432" style="stop-color:#CB1487"/>
					<stop  offset="1" style="stop-color:#290D22"/>
				</linearGradient>
				<polygon style="fill:url(#SVGID_00000002355456240204971310000005608106600086316722_);" points="662.937,500 750,412.937 
					750,353.255 603.255,500 				"/>
				
					<linearGradient id="SVGID_00000049940996205566703550000001775094988153708971_" gradientUnits="userSpaceOnUse" x1="-722.0768" y1="-2011.4103" x2="-878.8536" y2="-1878.1501" gradientTransform="matrix(-1 0 0 -1 -15.7866 -1469.4565)">
					<stop  offset="0" style="stop-color:#D771A9"/>
					<stop  offset="0.5" style="stop-color:#CB1487"/>
					<stop  offset="1" style="stop-color:#A02588"/>
				</linearGradient>
				<path style="fill:url(#SVGID_00000049940996205566703550000001775094988153708971_);" d="M755.648,549.366
					c27.264,0,49.366-22.102,49.366-49.366c0-27.264-22.102-49.366-49.366-49.366c-27.264,0-49.366,22.102-49.366,49.366
					S728.383,549.366,755.648,549.366z M755.648,476.671c12.884,0,23.328,10.445,23.328,23.329
					c0,12.884-10.445,23.328-23.328,23.328c-12.884,0-23.329-10.445-23.329-23.328C732.319,487.116,742.764,476.671,755.648,476.671
					z"/>
				
					<linearGradient id="SVGID_00000067932518047391340120000011781476674385760406_" gradientUnits="userSpaceOnUse" x1="-735.3522" y1="-1709.5504" x2="-744.1418" y2="-1291.4042" gradientTransform="matrix(-1 0 0 -1 -15.7866 -1469.4565)">
					<stop  offset="0" style="stop-color:#FDF161"/>
					<stop  offset="0.0521" style="stop-color:#FDE75A"/>
					<stop  offset="0.1797" style="stop-color:#FED44D"/>
					<stop  offset="0.3111" style="stop-color:#FFC946"/>
					<stop  offset="0.4511" style="stop-color:#FFC543"/>
					<stop  offset="0.6685" style="stop-color:#F68E4D"/>
					<stop  offset="1" style="stop-color:#ED3B3F"/>
				</linearGradient>
				<circle style="fill:url(#SVGID_00000067932518047391340120000011781476674385760406_);" cx="724.612" cy="0" r="62.157"/>
				
					<linearGradient id="SVGID_00000089534390113542580460000014599231190197978759_" gradientUnits="userSpaceOnUse" x1="409.1029" y1="133.4542" x2="491.2079" y2="-34.545">
					<stop  offset="0" style="stop-color:#F77E7D"/>
					<stop  offset="0.5" style="stop-color:#F23A58"/>
					<stop  offset="1" style="stop-color:#E11948"/>
				</linearGradient>
				<path style="fill:url(#SVGID_00000089534390113542580460000014599231190197978759_);" d="M519.836-38.51L519.836-38.51
					c10.343,10.343,10.343,27.112,0,37.456l-66.952,66.952c-10.343,10.343-27.112,10.343-37.456,0l0,0
					c-10.343-10.343-10.343-27.113,0-37.456l66.952-66.952C492.724-48.853,509.493-48.853,519.836-38.51z"/>
				
					<linearGradient id="SVGID_00000116225629498808438920000004712205486015408272_" gradientUnits="userSpaceOnUse" x1="-739.7852" y1="-1794.2524" x2="-592.9252" y2="-1871.0978" gradientTransform="matrix(-1 0 0 -1 -15.7866 -1469.4565)">
					<stop  offset="0" style="stop-color:#F77E7D"/>
					<stop  offset="0.5" style="stop-color:#F23A58"/>
					<stop  offset="1" style="stop-color:#E11948"/>
				</linearGradient>
				<path style="fill:url(#SVGID_00000116225629498808438920000004712205486015408272_);" d="M639.881,374.028
					c-8.514,8.514-22.318,8.514-30.832,0l-17.206,17.206c18.016,18.017,47.227,18.017,65.244,0
					c18.017-18.017,18.017-47.227,0-65.244l-17.206,17.206C648.395,351.71,648.395,365.514,639.881,374.028z"/>
				<g>
					
						<linearGradient id="SVGID_00000171703538377878240770000004021181519943616663_" gradientUnits="userSpaceOnUse" x1="588.4399" y1="-1273.489" x2="625.4254" y2="-1273.489" gradientTransform="matrix(0 1 -1 0 -793.1368 -112.4185)">
						<stop  offset="0" style="stop-color:#F77E7D"/>
						<stop  offset="0.5" style="stop-color:#F23A58"/>
						<stop  offset="1" style="stop-color:#E11948"/>
					</linearGradient>
					<polygon style="fill:url(#SVGID_00000171703538377878240770000004021181519943616663_);" points="476.654,513.007 
						476.654,476.022 484.051,476.021 484.051,513.007 					"/>
					
						<linearGradient id="SVGID_00000145779911950497868720000007398005283626277267_" gradientUnits="userSpaceOnUse" x1="588.4398" y1="-1287.9011" x2="625.4252" y2="-1287.9011" gradientTransform="matrix(0 1 -1 0 -793.1368 -112.4185)">
						<stop  offset="0" style="stop-color:#F77E7D"/>
						<stop  offset="0.5" style="stop-color:#F23A58"/>
						<stop  offset="1" style="stop-color:#E11948"/>
					</linearGradient>
					<polygon style="fill:url(#SVGID_00000145779911950497868720000007398005283626277267_);" points="491.066,513.007 
						491.066,476.021 498.463,476.021 498.463,513.007 					"/>
				</g>
				<g>
					
						<linearGradient id="SVGID_00000122686169637756093950000009809702188863929989_" gradientUnits="userSpaceOnUse" x1="-1306.2471" y1="-1010.9884" x2="-1306.8242" y2="-867.2755" gradientTransform="matrix(-0.7071 -0.7071 0.7071 -0.7071 450.8899 -1389.7316)">
						<stop  offset="0" style="stop-color:#F77E7D"/>
						<stop  offset="0.5" style="stop-color:#F23A58"/>
						<stop  offset="1" style="stop-color:#E11948"/>
					</linearGradient>
					<path style="fill:url(#SVGID_00000122686169637756093950000009809702188863929989_);" d="M679.449,229.127
						c-2.479-2.479-6.499-2.479-8.978,0c-2.479,2.479-2.479,6.499,0,8.978c2.479,2.479,6.499,2.479,8.978,0
						C681.928,235.626,681.928,231.606,679.449,229.127z"/>
					
						<linearGradient id="SVGID_00000134972131249812975550000000573527979206628226_" gradientUnits="userSpaceOnUse" x1="-1306.1428" y1="-1010.988" x2="-1306.72" y2="-867.2751" gradientTransform="matrix(-0.7071 -0.7071 0.7071 -0.7071 450.8899 -1389.7316)">
						<stop  offset="0" style="stop-color:#F77E7D"/>
						<stop  offset="0.5" style="stop-color:#F23A58"/>
						<stop  offset="1" style="stop-color:#E11948"/>
					</linearGradient>
					<path style="fill:url(#SVGID_00000134972131249812975550000000573527979206628226_);" d="M688.835,219.74
						c2.479,2.479,6.499,2.479,8.978,0c2.479-2.479,2.479-6.499,0-8.978c-2.479-2.479-6.499-2.479-8.978,0
						C686.356,213.241,686.356,217.261,688.835,219.74z"/>
					
						<linearGradient id="SVGID_00000122722345674617958640000001058889457961984667_" gradientUnits="userSpaceOnUse" x1="-1306.0383" y1="-1010.9879" x2="-1306.6155" y2="-867.2747" gradientTransform="matrix(-0.7071 -0.7071 0.7071 -0.7071 450.8899 -1389.7316)">
						<stop  offset="0" style="stop-color:#F77E7D"/>
						<stop  offset="0.5" style="stop-color:#F23A58"/>
						<stop  offset="1" style="stop-color:#E11948"/>
					</linearGradient>
					<path style="fill:url(#SVGID_00000122722345674617958640000001058889457961984667_);" d="M707.2,201.375
						c2.479,2.479,6.499,2.479,8.978,0c2.479-2.479,2.479-6.499,0-8.978c-2.479-2.479-6.499-2.479-8.979,0
						C704.721,194.876,704.721,198.896,707.2,201.375z"/>
				</g>
				<g>
					
						<linearGradient id="SVGID_00000102512990262433362700000013273696095785171608_" gradientUnits="userSpaceOnUse" x1="-1110.0394" y1="-924.5728" x2="-1110.6166" y2="-780.8599" gradientTransform="matrix(-0.7071 -0.7071 0.7071 -0.7071 450.8899 -1389.7316)">
						<stop  offset="0" style="stop-color:#F77E7D"/>
						<stop  offset="0.5" style="stop-color:#F23A58"/>
						<stop  offset="1" style="stop-color:#E11948"/>
					</linearGradient>
					<path style="fill:url(#SVGID_00000102512990262433362700000013273696095785171608_);" d="M601.815,29.284
						c-2.479-2.479-6.499-2.479-8.978,0c-2.479,2.479-2.479,6.499,0,8.978c2.479,2.479,6.499,2.479,8.978,0
						C604.294,35.783,604.294,31.763,601.815,29.284z"/>
					
						<linearGradient id="SVGID_00000081635060875617931510000006083066294528511412_" gradientUnits="userSpaceOnUse" x1="-1109.9351" y1="-924.5724" x2="-1110.5122" y2="-780.8595" gradientTransform="matrix(-0.7071 -0.7071 0.7071 -0.7071 450.8899 -1389.7316)">
						<stop  offset="0" style="stop-color:#F77E7D"/>
						<stop  offset="0.5" style="stop-color:#F23A58"/>
						<stop  offset="1" style="stop-color:#E11948"/>
					</linearGradient>
					<path style="fill:url(#SVGID_00000081635060875617931510000006083066294528511412_);" d="M611.201,19.897
						c2.479,2.479,6.499,2.479,8.978,0c2.479-2.479,2.479-6.499,0-8.978s-6.499-2.479-8.978,0S608.722,17.418,611.201,19.897z"/>
					
						<linearGradient id="SVGID_00000070085649287486240500000012421166793984545463_" gradientUnits="userSpaceOnUse" x1="-1109.8307" y1="-924.5723" x2="-1110.4078" y2="-780.8591" gradientTransform="matrix(-0.7071 -0.7071 0.7071 -0.7071 450.8899 -1389.7316)">
						<stop  offset="0" style="stop-color:#F77E7D"/>
						<stop  offset="0.5" style="stop-color:#F23A58"/>
						<stop  offset="1" style="stop-color:#E11948"/>
					</linearGradient>
					<path style="fill:url(#SVGID_00000070085649287486240500000012421166793984545463_);" d="M629.566,1.532
						c2.479,2.479,6.499,2.479,8.978,0c2.479-2.479,2.479-6.499,0-8.978c-2.479-2.479-6.499-2.479-8.978,0
						C627.087-4.967,627.087-0.947,629.566,1.532z"/>
				</g>
				<g>
					
						<linearGradient id="SVGID_00000058564704582290160790000004684569068983077016_" gradientUnits="userSpaceOnUse" x1="83.6725" y1="4.5397" x2="348.9351" y2="292.5392">
						<stop  offset="0" style="stop-color:#FDF161"/>
						<stop  offset="0.0521" style="stop-color:#FDE75A"/>
						<stop  offset="0.1797" style="stop-color:#FED44D"/>
						<stop  offset="0.3111" style="stop-color:#FFC946"/>
						<stop  offset="0.4511" style="stop-color:#FFC543"/>
						<stop  offset="0.6685" style="stop-color:#F68E4D"/>
						<stop  offset="1" style="stop-color:#ED3B3F"/>
					</linearGradient>
					<path style="fill:url(#SVGID_00000058564704582290160790000004684569068983077016_);" d="M127.147,47.06
						c-1.24-1.24-3.249-1.24-4.489,0c-1.24,1.24-1.24,3.25,0,4.489c1.24,1.24,3.249,1.24,4.489,0
						C128.387,50.309,128.387,48.299,127.147,47.06z"/>
					
						<linearGradient id="SVGID_00000032622852333212801990000015718347312003797158_" gradientUnits="userSpaceOnUse" x1="93.2161" y1="-4.2505" x2="358.4788" y2="283.749">
						<stop  offset="0" style="stop-color:#FDF161"/>
						<stop  offset="0.0521" style="stop-color:#FDE75A"/>
						<stop  offset="0.1797" style="stop-color:#FED44D"/>
						<stop  offset="0.3111" style="stop-color:#FFC946"/>
						<stop  offset="0.4511" style="stop-color:#FFC543"/>
						<stop  offset="0.6685" style="stop-color:#F68E4D"/>
						<stop  offset="1" style="stop-color:#ED3B3F"/>
					</linearGradient>
					<path style="fill:url(#SVGID_00000032622852333212801990000015718347312003797158_);" d="M131.841,42.366
						c1.24,1.24,3.249,1.24,4.489,0c1.24-1.24,1.24-3.25,0-4.489c-1.24-1.24-3.249-1.24-4.489,0
						C130.601,39.117,130.601,41.127,131.841,42.366z"/>
					
						<linearGradient id="SVGID_00000182494667450635991340000014085475731650417067_" gradientUnits="userSpaceOnUse" x1="102.7598" y1="-13.0407" x2="368.0225" y2="274.9588">
						<stop  offset="0" style="stop-color:#FDF161"/>
						<stop  offset="0.0521" style="stop-color:#FDE75A"/>
						<stop  offset="0.1797" style="stop-color:#FED44D"/>
						<stop  offset="0.3111" style="stop-color:#FFC946"/>
						<stop  offset="0.4511" style="stop-color:#FFC543"/>
						<stop  offset="0.6685" style="stop-color:#F68E4D"/>
						<stop  offset="1" style="stop-color:#ED3B3F"/>
					</linearGradient>
					<path style="fill:url(#SVGID_00000182494667450635991340000014085475731650417067_);" d="M141.023,33.184
						c1.24,1.24,3.25,1.24,4.489,0c1.24-1.24,1.24-3.25,0-4.489c-1.24-1.24-3.25-1.24-4.489,0
						C139.783,29.934,139.783,31.944,141.023,33.184z"/>
				</g>
				<g>
					
						<linearGradient id="SVGID_00000054230443351214745460000012099555490861186433_" gradientUnits="userSpaceOnUse" x1="608.9537" y1="287.4524" x2="747.2693" y2="453.2414">
						<stop  offset="0" style="stop-color:#FDF161"/>
						<stop  offset="0.0521" style="stop-color:#FDE75A"/>
						<stop  offset="0.1797" style="stop-color:#FED44D"/>
						<stop  offset="0.3111" style="stop-color:#FFC946"/>
						<stop  offset="0.4511" style="stop-color:#FFC543"/>
						<stop  offset="0.6685" style="stop-color:#F68E4D"/>
						<stop  offset="1" style="stop-color:#ED3B3F"/>
					</linearGradient>
					<path style="fill:url(#SVGID_00000054230443351214745460000012099555490861186433_);" d="M633.466,311.899
						c-1.24-1.24-3.25-1.24-4.489,0c-1.24,1.24-1.24,3.249,0,4.489c1.24,1.24,3.25,1.24,4.489,0
						C634.706,315.148,634.706,313.138,633.466,311.899z"/>
					
						<linearGradient id="SVGID_00000176007100254386560720000000312603975100933022_" gradientUnits="userSpaceOnUse" x1="618.8846" y1="279.1672" x2="757.2003" y2="444.9562">
						<stop  offset="0" style="stop-color:#FDF161"/>
						<stop  offset="0.0521" style="stop-color:#FDE75A"/>
						<stop  offset="0.1797" style="stop-color:#FED44D"/>
						<stop  offset="0.3111" style="stop-color:#FFC946"/>
						<stop  offset="0.4511" style="stop-color:#FFC543"/>
						<stop  offset="0.6685" style="stop-color:#F68E4D"/>
						<stop  offset="1" style="stop-color:#ED3B3F"/>
					</linearGradient>
					<path style="fill:url(#SVGID_00000176007100254386560720000000312603975100933022_);" d="M638.159,307.206
						c1.24,1.24,3.25,1.24,4.489,0c1.24-1.24,1.24-3.25,0-4.489c-1.24-1.24-3.249-1.24-4.489,0
						C636.92,303.956,636.92,305.966,638.159,307.206z"/>
					
						<linearGradient id="SVGID_00000150819799597782879730000000415873359587137708_" gradientUnits="userSpaceOnUse" x1="628.8156" y1="270.8819" x2="767.1315" y2="436.6713">
						<stop  offset="0" style="stop-color:#FDF161"/>
						<stop  offset="0.0521" style="stop-color:#FDE75A"/>
						<stop  offset="0.1797" style="stop-color:#FED44D"/>
						<stop  offset="0.3111" style="stop-color:#FFC946"/>
						<stop  offset="0.4511" style="stop-color:#FFC543"/>
						<stop  offset="0.6685" style="stop-color:#F68E4D"/>
						<stop  offset="1" style="stop-color:#ED3B3F"/>
					</linearGradient>
					<path style="fill:url(#SVGID_00000150819799597782879730000000415873359587137708_);" d="M647.342,298.023
						c1.24,1.24,3.25,1.24,4.489,0c1.24-1.24,1.24-3.25,0-4.489c-1.24-1.24-3.25-1.24-4.489,0
						C646.102,294.773,646.102,296.783,647.342,298.023z"/>
				</g>
				<g>
					
						<linearGradient id="SVGID_00000152229690470876327430000003280177000944358059_" gradientUnits="userSpaceOnUse" x1="509.4243" y1="38.1511" x2="751.9506" y2="272.1507">
						<stop  offset="0" style="stop-color:#FDF161"/>
						<stop  offset="0.0521" style="stop-color:#FDE75A"/>
						<stop  offset="0.1797" style="stop-color:#FED44D"/>
						<stop  offset="0.3111" style="stop-color:#FFC946"/>
						<stop  offset="0.4511" style="stop-color:#FFC543"/>
						<stop  offset="0.6685" style="stop-color:#F68E4D"/>
						<stop  offset="1" style="stop-color:#ED3B3F"/>
					</linearGradient>
					<path style="fill:url(#SVGID_00000152229690470876327430000003280177000944358059_);" d="M580.865,102.669
						c-1.24-1.24-3.249-1.24-4.489,0c-1.24,1.24-1.24,3.249,0,4.489c1.24,1.24,3.25,1.24,4.489,0
						C582.104,105.919,582.104,103.909,580.865,102.669z"/>
					
						<linearGradient id="SVGID_00000072981161458841394920000011557052216838439096_" gradientUnits="userSpaceOnUse" x1="518.4391" y1="28.807" x2="760.9655" y2="262.8067">
						<stop  offset="0" style="stop-color:#FDF161"/>
						<stop  offset="0.0521" style="stop-color:#FDE75A"/>
						<stop  offset="0.1797" style="stop-color:#FED44D"/>
						<stop  offset="0.3111" style="stop-color:#FFC946"/>
						<stop  offset="0.4511" style="stop-color:#FFC543"/>
						<stop  offset="0.6685" style="stop-color:#F68E4D"/>
						<stop  offset="1" style="stop-color:#ED3B3F"/>
					</linearGradient>
					<path style="fill:url(#SVGID_00000072981161458841394920000011557052216838439096_);" d="M585.558,97.976
						c1.24,1.24,3.25,1.24,4.489,0c1.24-1.24,1.24-3.25,0-4.489c-1.24-1.24-3.25-1.24-4.489,0
						C584.318,94.727,584.318,96.737,585.558,97.976z"/>
					
						<linearGradient id="SVGID_00000173160799533352486850000012088718563630831521_" gradientUnits="userSpaceOnUse" x1="527.4547" y1="19.4635" x2="769.9805" y2="253.4627">
						<stop  offset="0" style="stop-color:#FDF161"/>
						<stop  offset="0.0521" style="stop-color:#FDE75A"/>
						<stop  offset="0.1797" style="stop-color:#FED44D"/>
						<stop  offset="0.3111" style="stop-color:#FFC946"/>
						<stop  offset="0.4511" style="stop-color:#FFC543"/>
						<stop  offset="0.6685" style="stop-color:#F68E4D"/>
						<stop  offset="1" style="stop-color:#ED3B3F"/>
					</linearGradient>
					<path style="fill:url(#SVGID_00000173160799533352486850000012088718563630831521_);" d="M594.74,88.794
						c1.24,1.24,3.25,1.24,4.489,0c1.24-1.24,1.24-3.25,0-4.489c-1.24-1.24-3.25-1.24-4.489,0
						C593.501,85.544,593.501,87.554,594.74,88.794z"/>
				</g>
				
					<linearGradient id="SVGID_00000152266376233550241010000000961890515900588981_" gradientUnits="userSpaceOnUse" x1="-753.7467" y1="-1659.0934" x2="-764.8459" y2="-1375.0833" gradientTransform="matrix(-1 0 0 -1 -15.7866 -1469.4565)">
					<stop  offset="0" style="stop-color:#D771A9"/>
					<stop  offset="0.5" style="stop-color:#CB1487"/>
					<stop  offset="1" style="stop-color:#A02588"/>
				</linearGradient>
				<path style="fill:url(#SVGID_00000152266376233550241010000000961890515900588981_);" d="M714.697,147.096
					c30.97-4.514,54.757-31.172,54.757-63.395h-54.757L714.697,147.096z"/>
				<path style="fill:#FFFFFF;" d="M665.381,60.779c-0.669-0.669-1.755-0.669-2.424,0c-0.669,0.669-0.669,1.755,0,2.424
					c0.669,0.669,1.755,0.669,2.424,0C666.051,62.533,666.051,61.448,665.381,60.779z M704.116,22.044
					c0.669,0.669,1.755,0.669,2.424,0c0.669-0.669,0.669-1.755,0-2.424s-1.755-0.669-2.424,0
					C703.447,20.289,703.447,21.375,704.116,22.044z M693.826,32.333c0.669,0.669,1.755,0.669,2.424,0s0.669-1.754,0-2.424
					c-0.669-0.669-1.755-0.669-2.424,0C693.157,30.579,693.157,31.664,693.826,32.333z M683.537,42.623
					c0.669,0.669,1.754,0.669,2.424,0c0.669-0.669,0.669-1.755,0-2.424c-0.669-0.669-1.755-0.669-2.424,0
					C682.867,40.869,682.867,41.954,683.537,42.623z M673.247,52.913c0.669,0.669,1.755,0.669,2.424,0
					c0.669-0.669,0.669-1.755,0-2.424c-0.669-0.669-1.755-0.669-2.424,0C672.578,51.159,672.578,52.244,673.247,52.913z"/>
				<path style="fill:#FFFFFF;" d="M252.376,375.193c-0.335-0.335-0.877-0.335-1.212,0c-0.335,0.335-0.335,0.877,0,1.212
					c0.335,0.335,0.877,0.335,1.212,0C252.711,376.07,252.711,375.527,252.376,375.193z M271.743,355.826
					c0.335,0.335,0.877,0.335,1.212,0c0.335-0.335,0.335-0.877,0-1.212c-0.335-0.335-0.877-0.335-1.212,0
					C271.408,354.948,271.408,355.491,271.743,355.826z M266.598,360.97c0.335,0.335,0.877,0.335,1.212,0
					c0.335-0.335,0.335-0.877,0-1.212c-0.335-0.335-0.877-0.335-1.212,0C266.264,360.093,266.264,360.636,266.598,360.97z
					 M261.454,366.115c0.335,0.335,0.877,0.335,1.212,0c0.335-0.335,0.335-0.877,0-1.212c-0.335-0.335-0.877-0.335-1.212,0
					C261.119,365.238,261.119,365.78,261.454,366.115z M256.309,371.26c0.335,0.335,0.877,0.335,1.212,0
					c0.335-0.335,0.335-0.877,0-1.212c-0.335-0.335-0.877-0.335-1.212,0C255.974,370.383,255.974,370.925,256.309,371.26z"/>
				<path style="fill:#FFFFFF;" d="M536.702,185.778c-0.335-0.335-0.877-0.335-1.212,0c-0.335,0.335-0.335,0.877,0,1.212
					c0.335,0.335,0.877,0.335,1.212,0C537.037,186.656,537.037,186.113,536.702,185.778z M556.069,166.411
					c0.335,0.335,0.877,0.335,1.212,0c0.335-0.335,0.335-0.877,0-1.212c-0.335-0.335-0.877-0.335-1.212,0
					S555.735,166.076,556.069,166.411z M550.925,171.556c0.335,0.335,0.877,0.335,1.212,0c0.335-0.335,0.335-0.877,0-1.212
					c-0.335-0.335-0.877-0.335-1.212,0C550.59,170.678,550.59,171.221,550.925,171.556z M545.78,176.701
					c0.335,0.335,0.877,0.335,1.212,0c0.335-0.335,0.335-0.877,0-1.212c-0.335-0.335-0.877-0.335-1.212,0
					C545.445,175.823,545.445,176.366,545.78,176.701z M540.635,181.845c0.335,0.335,0.877,0.335,1.212,0
					c0.335-0.335,0.335-0.877,0-1.212c-0.335-0.335-0.877-0.335-1.212,0C540.3,180.968,540.3,181.511,540.635,181.845z"/>
				<path style="fill:#FFFFFF;" d="M587.642,302.288c-0.335-0.335-0.877-0.335-1.212,0c-0.335,0.335-0.335,0.877,0,1.212
					c0.335,0.335,0.877,0.335,1.212,0C587.977,303.165,587.977,302.622,587.642,302.288z M607.009,282.921
					c0.335,0.335,0.877,0.335,1.212,0c0.335-0.335,0.335-0.877,0-1.212c-0.335-0.335-0.877-0.335-1.212,0
					C606.674,282.043,606.674,282.586,607.009,282.921z M601.864,288.065c0.335,0.335,0.877,0.335,1.212,0
					c0.335-0.335,0.335-0.877,0-1.212c-0.335-0.335-0.877-0.335-1.212,0C601.53,287.188,601.53,287.731,601.864,288.065z
					 M596.719,293.21c0.335,0.335,0.877,0.335,1.212,0c0.335-0.335,0.335-0.877,0-1.212c-0.335-0.335-0.877-0.335-1.212,0
					C596.385,292.333,596.385,292.875,596.719,293.21z M591.575,298.355c0.335,0.335,0.877,0.335,1.212,0
					c0.335-0.335,0.335-0.877,0-1.212c-0.335-0.335-0.877-0.335-1.212,0C591.24,297.478,591.24,298.02,591.575,298.355z"/>
				<path style="fill:#FFFFFF;" d="M200.175,135.372c-0.335-0.335-0.877-0.335-1.212,0c-0.335,0.335-0.335,0.877,0,1.212
					c0.335,0.335,0.877,0.335,1.212,0C200.509,136.249,200.509,135.706,200.175,135.372z M219.542,116.005
					c0.335,0.335,0.877,0.335,1.212,0c0.335-0.335,0.335-0.877,0-1.212c-0.335-0.335-0.877-0.335-1.212,0
					C219.207,115.127,219.207,115.67,219.542,116.005z M214.397,121.149c0.335,0.335,0.877,0.335,1.212,0
					c0.335-0.335,0.335-0.877,0-1.212c-0.335-0.335-0.877-0.335-1.212,0C214.062,120.272,214.062,120.815,214.397,121.149z
					 M209.252,126.294c0.335,0.335,0.877,0.335,1.212,0c0.335-0.335,0.335-0.877,0-1.212c-0.335-0.335-0.877-0.335-1.212,0
					C208.918,125.417,208.918,125.959,209.252,126.294z M204.108,131.439c0.335,0.335,0.877,0.335,1.212,0
					c0.335-0.335,0.335-0.877,0-1.212c-0.335-0.335-0.877-0.335-1.212,0C203.773,130.562,203.773,131.104,204.108,131.439z"/>
				<path style="fill:#FFFFFF;" d="M525.556,76.622c-0.335-0.335-0.877-0.335-1.212,0c-0.335,0.335-0.335,0.877,0,1.212
					c0.335,0.335,0.877,0.335,1.212,0C525.891,77.499,525.891,76.956,525.556,76.622z M544.923,57.254
					c0.335,0.335,0.877,0.335,1.212,0c0.335-0.335,0.335-0.877,0-1.212c-0.335-0.335-0.877-0.335-1.212,0
					C544.588,56.377,544.588,56.92,544.923,57.254z M539.778,62.399c0.335,0.335,0.877,0.335,1.212,0
					c0.335-0.335,0.335-0.877,0-1.212c-0.335-0.335-0.877-0.335-1.212,0C539.443,61.522,539.443,62.064,539.778,62.399z
					 M534.633,67.544c0.335,0.335,0.877,0.335,1.212,0c0.335-0.335,0.335-0.877,0-1.212c-0.335-0.335-0.877-0.335-1.212,0
					C534.299,66.667,534.299,67.209,534.633,67.544z M529.489,72.689c0.335,0.335,0.877,0.335,1.212,0
					c0.335-0.335,0.335-0.877,0-1.212c-0.335-0.335-0.877-0.335-1.212,0C529.154,71.812,529.154,72.354,529.489,72.689z"/>
				
					<rect x="385.079" y="401.893" transform="matrix(-1 -1.224647e-16 1.224647e-16 -1 782.8556 816.4826)" style="fill:none;stroke:#FFFFFF;stroke-miterlimit:10;" width="12.697" height="12.697"/>
				
					<rect x="656.107" y="177.66" transform="matrix(-1 7.875690e-06 -7.875690e-06 -1 1324.9125 368.0125)" style="fill:none;stroke:#FFFFFF;stroke-miterlimit:10;" width="12.697" height="12.697"/>
				
					<rect x="291.557" y="316.634" transform="matrix(-1 -1.224647e-16 1.224647e-16 -1 595.8113 645.9653)" style="fill:none;stroke:#FFFFFF;stroke-miterlimit:10;" width="12.697" height="12.697"/>
				
					<linearGradient id="SVGID_00000093888824427340921790000010622058929795011969_" gradientUnits="userSpaceOnUse" x1="-581.8535" y1="-1668.4696" x2="-552.8231" y2="-1593.3318" gradientTransform="matrix(-1 0 0 -1 -15.7868 -1469.4563)">
					<stop  offset="0" style="stop-color:#FDF161"/>
					<stop  offset="0.0521" style="stop-color:#FDE75A"/>
					<stop  offset="0.1797" style="stop-color:#FED44D"/>
					<stop  offset="0.3111" style="stop-color:#FFC946"/>
					<stop  offset="0.4511" style="stop-color:#FFC543"/>
					<stop  offset="0.6685" style="stop-color:#F68E4D"/>
					<stop  offset="1" style="stop-color:#ED3B3F"/>
				</linearGradient>
				<path style="fill:url(#SVGID_00000093888824427340921790000010622058929795011969_);" d="M532.03,169.438v-32.617l32.617,0
					L532.03,169.438z"/>
				
					<linearGradient id="SVGID_00000008146005568271910800000009403392827220361899_" gradientUnits="userSpaceOnUse" x1="513.0773" y1="189.0212" x2="540.8669" y2="504.81">
					<stop  offset="0" style="stop-color:#FDF161"/>
					<stop  offset="0.0521" style="stop-color:#FDE75A"/>
					<stop  offset="0.1797" style="stop-color:#FED44D"/>
					<stop  offset="0.3111" style="stop-color:#FFC946"/>
					<stop  offset="0.4511" style="stop-color:#FFC543"/>
					<stop  offset="0.6685" style="stop-color:#F68E4D"/>
					<stop  offset="1" style="stop-color:#ED3B3F"/>
				</linearGradient>
				<path style="fill:url(#SVGID_00000008146005568271910800000009403392827220361899_);" d="M515.722,420.703v-32.617l32.617,0
					L515.722,420.703z"/>
				<path style="fill:#FFFFFF;" d="M281.338,51.947L281.338,51.947c0.453,0.453,0.453,1.188,0,1.642l-36.915,36.915
					c-0.453,0.453-1.189,0.453-1.642,0l0,0c-0.453-0.453-0.453-1.189,0-1.642l36.915-36.915
					C280.149,51.494,280.885,51.494,281.338,51.947z"/>
				<path style="fill:#FFFFFF;" d="M4.964,20.419L4.964,20.419c0.453,0.453,0.453,1.188,0,1.642l-36.915,36.915
					c-0.453,0.453-1.189,0.453-1.642,0l0,0c-0.453-0.454-0.453-1.189,0-1.642L3.322,20.419C3.775,19.965,4.51,19.965,4.964,20.419z"
					/>
				<path style="fill:#FFFFFF;" d="M778.382,403.907L778.382,403.907c0.453,0.453,0.453,1.189,0,1.642l-36.915,36.915
					c-0.453,0.453-1.188,0.453-1.642,0l0,0c-0.453-0.453-0.453-1.189,0-1.642l36.915-36.915
					C777.194,403.453,777.929,403.453,778.382,403.907z"/>
				<path style="fill:#FFFFFF;" d="M593.932,468.854L593.932,468.854c0.453,0.453,0.453,1.189,0,1.642l-36.915,36.915
					c-0.453,0.453-1.189,0.453-1.642,0l0,0c-0.453-0.453-0.453-1.189,0-1.642l36.915-36.915
					C592.744,468.401,593.479,468.401,593.932,468.854z"/>
				<path style="fill:#FFFFFF;" d="M556.209,488.473L556.209,488.473c0.453,0.453,0.453,1.188,0,1.642l-36.915,36.915
					c-0.453,0.453-1.188,0.453-1.642,0l0,0c-0.453-0.453-0.453-1.189,0-1.642l36.915-36.915
					C555.02,488.019,555.755,488.019,556.209,488.473z"/>
				<path style="fill:#FFFFFF;" d="M758.764,216.941L758.764,216.941c0.453,0.453,0.453,1.189,0,1.642l-36.915,36.915
					c-0.453,0.453-1.188,0.453-1.642,0l0,0c-0.453-0.453-0.453-1.189,0-1.642l36.915-36.915
					C757.575,216.487,758.31,216.487,758.764,216.941z"/>
				<path style="fill:#FFFFFF;" d="M721.04,236.559L721.04,236.559c0.453,0.453,0.453,1.189,0,1.642l-36.915,36.915
					c-0.453,0.453-1.188,0.453-1.642,0l0,0c-0.453-0.453-0.453-1.189,0-1.642l36.915-36.915
					C719.852,236.106,720.587,236.106,721.04,236.559z"/>
				<path style="fill:#FFFFFF;" d="M573.265,3.854L573.265,3.854c0.453,0.453,0.453,1.188,0,1.642l-86.412,86.413
					c-0.453,0.453-1.188,0.453-1.642,0l0,0c-0.453-0.453-0.453-1.189,0-1.642l86.412-86.413
					C572.076,3.401,572.811,3.401,573.265,3.854z"/>
				<path style="fill:#FFFFFF;" d="M599.819-40.514L599.819-40.514c0.453,0.453,0.453,1.188,0,1.642l-86.412,86.413
					c-0.453,0.453-1.189,0.453-1.642,0l0,0c-0.453-0.454-0.453-1.189,0-1.642l86.412-86.413
					C598.63-40.967,599.366-40.967,599.819-40.514z"/>
				
					<linearGradient id="SVGID_00000127742561486993180360000010690227395271473830_" gradientUnits="userSpaceOnUse" x1="-658.7251" y1="-1684.0891" x2="-662.9943" y2="-2077.7075" gradientTransform="matrix(-1 0 0 -1 -15.7866 -1469.4565)">
					<stop  offset="0" style="stop-color:#FDF161"/>
					<stop  offset="0.0521" style="stop-color:#FDE75A"/>
					<stop  offset="0.1797" style="stop-color:#FED44D"/>
					<stop  offset="0.3111" style="stop-color:#FFC946"/>
					<stop  offset="0.4511" style="stop-color:#FFC543"/>
					<stop  offset="0.6685" style="stop-color:#F68E4D"/>
					<stop  offset="1" style="stop-color:#ED3B3F"/>
				</linearGradient>
				<path style="fill:url(#SVGID_00000127742561486993180360000010690227395271473830_);" d="M647.453,428.447L647.453,428.447
					c16.454,0,29.793,13.339,29.793,29.793l-0.001,345.284c0,16.454-13.339,29.793-29.793,29.793h0
					c-16.454,0-29.793-13.339-29.793-29.793l0.001-345.283C617.66,441.785,630.999,428.447,647.453,428.447z"/>
				
					<linearGradient id="SVGID_00000035492220893426844000000017377417964239169194_" gradientUnits="userSpaceOnUse" x1="450.039" y1="312.8532" x2="1152.986" y2="-382.5159">
					<stop  offset="0" style="stop-color:#D771A9"/>
					<stop  offset="0.5" style="stop-color:#CB1487"/>
					<stop  offset="1" style="stop-color:#A02588"/>
				</linearGradient>
				<circle style="fill:url(#SVGID_00000035492220893426844000000017377417964239169194_);" cx="643.578" cy="121.4" r="28.393"/>
				
					<linearGradient id="SVGID_00000005230196102998641610000004563395861818919090_" gradientUnits="userSpaceOnUse" x1="883.6211" y1="187.4361" x2="693.2007" y2="421.4354">
					<stop  offset="0" style="stop-color:#FDF161"/>
					<stop  offset="0.0521" style="stop-color:#FDE75A"/>
					<stop  offset="0.1797" style="stop-color:#FED44D"/>
					<stop  offset="0.3111" style="stop-color:#FFC946"/>
					<stop  offset="0.4511" style="stop-color:#FFC543"/>
					<stop  offset="0.6685" style="stop-color:#F68E4D"/>
					<stop  offset="1" style="stop-color:#ED3B3F"/>
				</linearGradient>
				<path style="fill:url(#SVGID_00000005230196102998641610000004563395861818919090_);" d="M705.9,351.637
					c0-24.356,19.744-44.1,44.1-44.1c24.356,0,44.1,19.744,44.1,44.099c0,24.356-19.744,44.1-44.1,44.1
					C725.644,395.737,705.9,375.993,705.9,351.637z"/>
				<path style="fill:#FFFFFF;" d="M628.62,135.424L628.62,135.424c0.453,0.453,0.453,1.188,0,1.642l-36.915,36.915
					c-0.453,0.453-1.189,0.453-1.642,0l0,0c-0.453-0.453-0.453-1.189,0-1.642l36.915-36.915
					C627.432,134.971,628.167,134.971,628.62,135.424z"/>
				<path style="fill:#FFFFFF;" d="M292.484,412.343L292.484,412.343c0.453,0.453,0.453,1.189,0,1.642L255.569,450.9
					c-0.453,0.453-1.189,0.453-1.642,0l0,0c-0.453-0.453-0.453-1.189,0-1.642l36.915-36.915
					C291.296,411.889,292.031,411.889,292.484,412.343z"/>
			</g>
		</g>
	</g>
</g>
</svg>
